<?xml version="1.0" encoding="UTF-8"?>
<svg width="14px" height="12px" viewBox="0 0 14 12" version="1.1" xmlns="http://www.w3.org/2000/svg" xmlns:xlink="http://www.w3.org/1999/xlink">
    <!-- Generator: Sketch 40.3 (33839) - http://www.bohemiancoding.com/sketch -->
    <title>arrow-right</title>
    <desc>Created with Sketch.</desc>
    <defs></defs>
    <g id="Symbols" stroke="none" stroke-width="1" fill="none" fill-rule="evenodd">
        <g id="cta-continuar-desktop-on" transform="translate(-198.000000, -24.000000)" fill="#FFFFFF">
            <path d="M209.350054,30.8016342 L205.641382,34.6316507 C205.338238,34.944517 205.338049,35.4521166 205.641192,35.7651788 C205.944146,36.0782411 206.435664,36.0782411 206.738808,35.7653748 L211.772358,30.5667396 C211.843306,30.4936656 211.900027,30.4062903 211.939295,30.3095114 C211.976667,30.2172383 211.995068,30.1175208 211.996965,30.0146687 C211.995447,29.883018 211.976856,29.7825168 211.939295,29.6902437 L211.776341,29.4390887 L206.738808,24.2347722 C206.435664,23.92171 205.944146,23.92171 205.641192,24.2349681 C205.338049,24.5480303 205.338238,25.055434 205.641382,25.3684962 L209.350434,29.1987086 L198.77607,29.1987086 C198.347344,29.1987086 198,29.5574176 198,30.0001714 C198,30.4427293 198.347344,30.8016342 198.77607,30.8016342 L209.350054,30.8016342 Z" id="arrow-right"></path>
        </g>
    </g>
</svg>