<?xml version="1.0" encoding="UTF-8"?>
<svg width="12px" height="12px" viewBox="0 0 12 12" version="1.1" xmlns="http://www.w3.org/2000/svg" xmlns:xlink="http://www.w3.org/1999/xlink">
    <!-- Generator: Sketch 40.3 (33839) - http://www.bohemiancoding.com/sketch -->
    <title>Shape</title>
    <desc>Created with Sketch.</desc>
    <defs></defs>
    <g id="desktop" stroke="none" stroke-width="1" fill="none" fill-rule="evenodd">
        <g id="2" transform="translate(-1206.000000, -576.000000)" fill="#FFFFFF">
            <g id="conteudo" transform="translate(683.000000, 341.000000)">
                <g id="alert" transform="translate(0.000000, 211.000000)">
                    <path d="M533.621622,24.2432432 L529.016216,28.8810811 L524.410811,24.2432432 C524.086486,23.9189189 523.567568,23.9189189 523.275676,24.2432432 C522.951351,24.5675676 522.951351,25.0864865 523.275676,25.3783784 L527.881081,30.0162162 L523.243243,34.6216216 C522.918919,34.9459459 522.918919,35.4648649 523.243243,35.7567568 C523.567568,36.0810811 524.086486,36.0810811 524.378378,35.7567568 L529.016216,31.1513514 L533.621622,35.7567568 C533.945946,36.0810811 534.464865,36.0810811 534.756757,35.7567568 C535.048649,35.4324324 535.081081,34.9135135 534.756757,34.6216216 L530.151351,30.0162162 L534.756757,25.4108108 C535.081081,25.0864865 535.081081,24.5675676 534.756757,24.2756757 C534.464865,23.9513514 533.945946,23.9513514 533.621622,24.2432432 L533.621622,24.2432432 Z" id="Shape"></path>
                </g>
            </g>
        </g>
    </g>
</svg>