<?xml version="1.0" encoding="UTF-8"?>
<svg width="24px" height="24px" viewBox="0 0 24 24" version="1.1" xmlns="http://www.w3.org/2000/svg" xmlns:xlink="http://www.w3.org/1999/xlink">
    <!-- Generator: Sketch 40.3 (33839) - http://www.bohemiancoding.com/sketch -->
    <title>error</title>
    <desc>Created with Sketch.</desc>
    <defs>
        <rect id="path-1" x="0" y="0" width="24" height="24" rx="12"></rect>
        <mask id="mask-2" maskContentUnits="userSpaceOnUse" maskUnits="objectBoundingBox" x="0" y="0" width="24" height="24" fill="white">
            <use xlink:href="#path-1"></use>
        </mask>
    </defs>
    <g id="desktop" stroke="none" stroke-width="1" fill="none" fill-rule="evenodd">
        <g id="6" transform="translate(-1194.000000, -556.000000)">
            <g id="error" transform="translate(1194.000000, 556.000000)">
                <use id="Rectangle-Copy" stroke="#FF6233" mask="url(#mask-2)" stroke-width="2" fill="#FFFFFF" xlink:href="#path-1"></use>
                <path d="M15.4162162,7.63243243 L11.9621622,11.1108108 L8.50810811,7.63243243 C8.26486486,7.38918919 7.87567568,7.38918919 7.65675676,7.63243243 C7.41351351,7.87567568 7.41351351,8.26486486 7.65675676,8.48378378 L11.1108108,11.9621622 L7.63243243,15.4162162 C7.38918919,15.6594595 7.38918919,16.0486486 7.63243243,16.2675676 C7.87567568,16.5108108 8.26486486,16.5108108 8.48378378,16.2675676 L11.9621622,12.8135135 L15.4162162,16.2675676 C15.6594595,16.5108108 16.0486486,16.5108108 16.2675676,16.2675676 C16.4864865,16.0243243 16.5108108,15.6351351 16.2675676,15.4162162 L12.8135135,11.9621622 L16.2675676,8.50810811 C16.5108108,8.26486486 16.5108108,7.87567568 16.2675676,7.65675676 C16.0486486,7.41351351 15.6594595,7.41351351 15.4162162,7.63243243 L15.4162162,7.63243243 Z" id="Shape" fill="#FF6233"></path>
            </g>
        </g>
    </g>
</svg>