<?xml version="1.0" encoding="UTF-8"?>
<svg width="99px" height="124px" viewBox="0 0 99 124" version="1.1" xmlns="http://www.w3.org/2000/svg" xmlns:xlink="http://www.w3.org/1999/xlink">
    <!-- Generator: Sketch 40.3 (33839) - http://www.bohemiancoding.com/sketch -->
    <title>Combined Shape</title>
    <desc>Created with Sketch.</desc>
    <defs></defs>
    <g id="desktop" stroke="none" stroke-width="1" fill="none" fill-rule="evenodd">
        <g id="14" transform="translate(-703.000000, -403.000000)" stroke="#F6FBFF" stroke-width="3" fill="#475C7A">
            <g id="conteudo" transform="translate(572.000000, 258.000000)">
                <g id="itens" transform="translate(0.000000, 72.000000)">
                    <path d="M228,116.42539 C228,93.5746102 209.453652,75 186.63764,75 C175.830056,75 165.689607,79.142539 157.950843,86.6258352 C156.616573,86.3585746 155.148876,86.2249443 153.814607,86.2249443 C142.339888,86.2249443 133,95.5790646 133,107.2049 C133,107.47216 134.200843,132.461024 133.667135,143.418708 C133.400281,144.487751 133.266854,145.556793 133.266854,146.759465 C133.266854,152.371938 137.002809,157.182628 142.206461,158.652561 C143.140449,178.830735 159.952247,195 180.5,195 C201.18118,195 217.992978,178.563474 218.926966,158.11804 C224.264045,156.648107 228,151.837416 228,146.091314 L228,145.690423 C228,145.289532 228,145.022272 227.866573,144.755011 C227.332865,135.801782 227.599719,125.111359 227.866573,119.632517 C228,118.563474 228,117.360802 228,116.42539 Z M142.073034,153.173719 C139.671348,151.971047 138.070225,149.432071 138.070225,146.625835 C138.070225,145.824053 138.203652,145.022272 138.470506,144.22049 C139.13764,142.349666 140.338483,140.879733 142.073034,139.944321 L142.073034,153.173719 Z M158.922859,134.509336 C157.743767,135.217314 157.471005,136.757167 158.243705,137.820498 C158.949589,138.999555 160.487912,139.270495 161.551453,138.495803 C166.650633,135.267698 172.032801,138.220791 172.263903,138.354218 C173.419414,139.021352 174.878345,138.629242 175.546496,137.47197 C176.214648,136.314698 175.82476,134.855172 174.669248,134.188037 C173.975941,133.787757 166.447038,129.749548 158.922859,134.509336 Z M173.199544,172.238993 C172.020452,171.531016 171.74769,169.991162 172.52039,168.927832 C173.226275,167.748775 174.764598,167.477835 175.828139,168.252526 C180.927318,171.480632 186.309486,168.527539 186.540588,168.394112 C187.6961,167.726977 189.15503,168.119087 189.823182,169.276359 C190.491333,170.433632 190.101445,171.893157 188.945934,172.560292 C188.252627,172.960573 180.723723,176.998782 173.199544,172.238993 Z M167.29073,153.173719 C169.427731,153.173719 171.160112,151.438698 171.160112,149.298441 C171.160112,147.158184 169.427731,145.423163 167.29073,145.423163 C165.15373,145.423163 163.421348,147.158184 163.421348,149.298441 C163.421348,151.438698 165.15373,153.173719 167.29073,153.173719 Z M189.872956,138.394381 C190.104058,138.260954 195.486226,135.307861 200.585405,138.535967 C201.764497,139.243944 203.120454,138.923991 203.893154,137.860661 C204.599039,136.681604 204.277541,135.324191 203.214,134.5495 C195.805372,129.722998 188.160917,133.82792 187.46761,134.228201 C186.312099,134.895336 185.922211,136.354861 186.590363,137.512134 C187.258514,138.669406 188.717444,139.061516 189.872956,138.394381 Z M194.776685,153.173719 C196.913686,153.173719 198.646067,151.438698 198.646067,149.298441 C198.646067,147.158184 196.913686,145.423163 194.776685,145.423163 C192.639685,145.423163 190.907303,147.158184 190.907303,149.298441 C190.907303,151.438698 192.639685,153.173719 194.776685,153.173719 Z M214.123596,133.797327 L214.123596,136.202673 L214.123596,138.608018 L214.123596,153.708241 L214.123596,156.113586 L214.123596,156.514477 C214.123596,157.182628 214.123596,157.85078 213.990169,158.518931 C212.922753,176.158129 198.379213,190.18931 180.5,190.18931 C162.754213,190.18931 148.210674,176.42539 147.009831,159.053452 C147.009831,158.25167 146.876404,157.449889 146.876404,156.648107 L146.876404,154.242762 L146.876404,139.276169 L146.876404,136.870824 L146.876404,134.465479 L146.876404,121.503341 C146.876404,119.231626 148.610955,117.494432 150.879213,117.494432 C151.146067,117.494432 151.412921,117.494432 151.679775,117.628062 C170.626404,121.770601 190.373596,121.770601 209.320225,117.628062 L209.453652,117.628062 C211.855337,117.227171 214.123596,119.097996 214.123596,121.636971 L214.123596,133.797327 L214.123596,133.797327 Z M218.926966,152.906459 L218.926966,139.54343 C221.328652,140.879733 222.929775,143.285078 222.929775,146.224944 C222.929775,149.164811 221.328652,151.570156 218.926966,152.906459 Z M223.063202,119.498886 C222.929775,123.374165 222.796348,129.654788 222.796348,136.336303 C221.595506,135.400891 220.394663,134.732739 218.926966,134.331849 L218.926966,121.36971 C218.926966,116.55902 214.924157,112.550111 210.120787,112.550111 C209.587079,112.550111 208.919944,112.550111 208.386236,112.683742 L208.119382,112.683742 C189.973315,116.69265 171.026685,116.69265 152.747191,112.683742 C152.213483,112.550111 151.546348,112.550111 151.01264,112.550111 C146.20927,112.550111 142.206461,116.55902 142.206461,121.36971 L142.206461,134.732739 C141.005618,135.13363 139.804775,135.668151 138.73736,136.336303 C138.73736,124.175947 137.936798,107.739421 137.936798,106.937639 C137.936798,98.1180401 145.141854,90.9020045 153.948034,90.9020045 C155.41573,90.9020045 156.75,91.169265 158.217697,91.4365256 L159.551966,91.8374165 L160.485955,90.9020045 C167.424157,83.6859688 176.764045,79.8106904 186.63764,79.8106904 C206.785112,79.8106904 223.196629,96.247216 223.196629,116.42539 C223.196629,117.227171 223.196629,118.296214 223.063202,119.498886 Z" id="Combined-Shape"></path>
                </g>
            </g>
        </g>
    </g>
</svg>