<?xml version="1.0" encoding="UTF-8"?>
<svg width="124px" height="104px" viewBox="0 0 124 104" version="1.1" xmlns="http://www.w3.org/2000/svg" xmlns:xlink="http://www.w3.org/1999/xlink">
    <!-- Generator: Sketch 40.3 (33839) - http://www.bohemiancoding.com/sketch -->
    <title>Shape</title>
    <desc>Created with Sketch.</desc>
    <defs></defs>
    <g id="desktop" stroke="none" stroke-width="1" fill="none" fill-rule="evenodd">
        <g id="14" transform="translate(-1100.000000, -413.000000)" stroke="#F6FBFF" stroke-width="3.5" fill="#475C7A">
            <g id="conteudo" transform="translate(572.000000, 258.000000)">
                <g id="itens" transform="translate(0.000000, 72.000000)">
                    <path d="M541.935062,85 L530,102.830398 L530,120.707277 C530,127.831689 534.582351,133.912875 540.995025,136.293704 L540.995025,179.835511 L532.673475,179.835511 L532.673475,185 L647.363184,185 L647.363184,179.835511 L639.004975,179.835511 L639.004975,136.293704 C645.417649,133.912875 650,127.834272 650,120.707277 L650,102.820069 L637.928777,85 L541.935062,85 L541.935062,85 Z M544.752553,90.164489 L635.132234,90.164489 L642.817491,101.516036 L537.153705,101.516036 L544.752553,90.164489 L544.752553,90.164489 Z M601.838178,179.835511 L578.159204,179.835511 L578.159204,152.285545 L601.838178,152.285545 L601.838178,179.835511 L601.838178,179.835511 Z M633.768002,179.835511 L607.075151,179.835511 L607.075151,147.121056 L572.924849,147.121056 L572.924849,179.835511 L546.231998,179.835511 L546.231998,137.342096 C546.475517,137.352425 546.716418,137.378247 546.962556,137.378247 C553.003404,137.378247 558.300602,134.248567 561.309243,129.564375 C564.315266,134.248567 569.615082,137.378247 575.655931,137.378247 C581.696779,137.378247 586.993977,134.248567 590.002618,129.564375 C593.008641,134.248567 598.308458,137.378247 604.349306,137.378247 C610.390154,137.378247 615.687353,134.248567 618.695994,129.564375 C621.702016,134.248567 627.001833,137.378247 633.042681,137.378247 C633.288819,137.378247 633.52972,137.352425 633.773239,137.342096 L633.773239,179.835511 L633.768002,179.835511 L633.768002,179.835511 Z M633.037444,132.213758 C626.569783,132.213758 621.309243,127.051851 621.309243,120.707277 L616.07227,120.707277 C616.07227,127.051851 610.811731,132.213758 604.344069,132.213758 C597.876407,132.213758 592.618487,127.051851 592.618487,120.707277 L587.381513,120.707277 C587.381513,127.051851 582.120974,132.213758 575.653312,132.213758 C569.185651,132.213758 563.925111,127.051851 563.925111,120.707277 L558.688138,120.707277 C558.688138,127.051851 553.427599,132.213758 546.959937,132.213758 C540.492275,132.213758 535.231736,127.051851 535.231736,120.707277 L535.231736,106.677942 L644.75779,106.677942 L644.75779,120.707277 C644.763027,127.051851 639.502488,132.213758 633.037444,132.213758 L633.037444,132.213758 Z" id="Shape"></path>
                </g>
            </g>
        </g>
    </g>
</svg>