<?xml version="1.0" encoding="UTF-8"?>
<svg width="22px" height="26px" viewBox="0 0 22 26" version="1.1" xmlns="http://www.w3.org/2000/svg" xmlns:xlink="http://www.w3.org/1999/xlink">
    <!-- Generator: Sketch 40.3 (33839) - http://www.bohemiancoding.com/sketch -->
    <title>Combined Shape</title>
    <desc>Created with Sketch.</desc>
    <defs></defs>
    <g id="desktop" stroke="none" stroke-width="1" fill="none" fill-rule="evenodd">
        <g id="24" transform="translate(-847.000000, -487.000000)" stroke="#FFFFFF" stroke-width="0.6" fill="#9DCE24">
            <g id="Group" transform="translate(682.000000, 367.000000)">
                <g id="Group-2" transform="translate(146.000000, 103.000000)">
                    <g id="Group-4" transform="translate(20.000000, 18.000000)">
                        <path d="M10.0001926,-5.15143483e-14 C4.48606051,-5.15143483e-14 -2.3625546e-13,4.54654567 -2.3625546e-13,10.1346338 C-2.3625546e-13,16.9454701 9.15515476,23.5747132 9.54511293,23.8535514 C9.68152126,23.9511838 9.84066424,24 10.0001926,24 C10.1554823,24 10.310772,23.953527 10.4448683,23.8609715 C10.8348265,23.591506 20,17.1762731 20,10.1346338 C19.9999999,4.54654567 15.5139394,-5.15143483e-14 10.0001926,-5.15143483e-14 L10.0001926,-5.15143483e-14 Z M10.0075139,22.2090282 C8.20337933,20.8121038 1.5783288,15.3286776 1.5783288,10.1346338 C1.5783288,5.42836155 5.35653047,1.59960927 10.0001926,1.59960927 C14.6438548,1.59960927 18.4216711,5.42836155 18.4216711,10.1346338 C18.4216711,15.5102739 11.8155019,20.8488136 10.0075139,22.2090282 Z M10.0001926,4.99292104 C7.29707334,4.99292104 5.0975859,7.22206405 5.0975859,9.96162919 C5.0975859,12.7011943 7.29707342,14.9303373 10.0001926,14.9303373 C12.7033119,14.9303373 14.9027994,12.7011943 14.9027994,9.96162919 C14.9027994,7.22206405 12.7033119,4.99292104 10.0001926,4.99292104 Z M10.0001926,13.3307281 C8.16715795,13.3307281 6.6759147,11.8193786 6.6759147,9.96162927 C6.6759147,8.10387993 8.16715795,6.59253038 10.0001926,6.59253038 C11.8332273,6.59253038 13.3244706,8.10387993 13.3244706,9.96162927 C13.3244706,11.8193786 11.8332273,13.3307281 10.0001926,13.3307281 Z" id="Combined-Shape"></path>
                    </g>
                </g>
            </g>
        </g>
    </g>
</svg>